<svg id="hr" xmlns="http://www.w3.org/2000/svg" width="24" height="25" viewBox="0 0 24 25">
  <rect id="Rectangle_81" data-name="Rectangle 81" width="24" height="24" fill="#82dcd2" opacity="0"/>
  <path id="hr-2" data-name="hr" d="M0,7.2A7.617,7.617,0,0,1,1.94,2.062,6.152,6.152,0,0,1,6.6,0,6.891,6.891,0,0,1,12,2.668,6.891,6.891,0,0,1,17.4,0a6.152,6.152,0,0,1,4.66,2.061A7.617,7.617,0,0,1,24,7.2c0,7.141-7.655,12.533-12,16.8C7.664,19.7,0,14.347,0,7.2Z" transform="translate(0 1)" fill="#2e6e69"/>
</svg>
