<svg id="icon_sp_5" xmlns="http://www.w3.org/2000/svg" xmlns:xlink="http://www.w3.org/1999/xlink" width="120" height="96" viewBox="0 0 120 96">
  <defs>
    <clipPath id="clip-path">
      <rect id="Rectangle_96" data-name="Rectangle 96" width="120" height="66" fill="#fff"/>
    </clipPath>
  </defs>
  <rect id="Rectangle_94" data-name="Rectangle 94" width="81" height="21" rx="10.5" transform="translate(20 75)" fill="#428e86"/>
  <path id="Path_232" data-name="Path 232" d="M35.017,82.376v2.807h3.542v1.449H35.017V89.5h4.494V91H33.127V80.878h6.384v1.5ZM47.319,91H45.653a.469.469,0,0,1-.308-.1.967.967,0,0,1-.189-.224l-1.519-2.5a1.583,1.583,0,0,1-.084.224,1.276,1.276,0,0,1-.1.2l-1.344,2.079a1.2,1.2,0,0,1-.189.224.41.41,0,0,1-.28.1H40.095l2.464-3.7-2.366-3.479h1.666a.548.548,0,0,1,.28.056.431.431,0,0,1,.161.168l1.5,2.394a2.232,2.232,0,0,1,.217-.469l1.211-1.89a.456.456,0,0,1,.4-.259h1.589l-2.359,3.4Zm5.719-5.663a.8.8,0,0,1-.154.154.332.332,0,0,1-.21.056.491.491,0,0,1-.259-.077q-.126-.084-.3-.182a1.957,1.957,0,0,0-.42-.182,2.048,2.048,0,0,0-1.393.084,1.51,1.51,0,0,0-.574.469,2.164,2.164,0,0,0-.336.749,4.427,4.427,0,0,0,.007,2.009,2.272,2.272,0,0,0,.357.756,1.567,1.567,0,0,0,.56.462,1.729,1.729,0,0,0,.742.154,1.87,1.87,0,0,0,.665-.1,2.34,2.34,0,0,0,.434-.224q.175-.126.3-.224a.463.463,0,0,1,.294-.1.351.351,0,0,1,.315.161l.5.63a3.221,3.221,0,0,1-.623.567,3.386,3.386,0,0,1-1.442.553,5.157,5.157,0,0,1-.756.056,3.225,3.225,0,0,1-1.253-.245,3,3,0,0,1-1.029-.728,3.51,3.51,0,0,1-.7-1.162,4.97,4.97,0,0,1-.028-3.038,3.324,3.324,0,0,1,.672-1.169,3.045,3.045,0,0,1,1.092-.777,3.761,3.761,0,0,1,1.5-.28,3.538,3.538,0,0,1,1.407.259,3.436,3.436,0,0,1,1.092.742Zm6.113,1.246a1.978,1.978,0,0,0-.1-.63,1.456,1.456,0,0,0-.28-.525,1.279,1.279,0,0,0-.483-.35,1.583,1.583,0,0,0-.672-.133,1.614,1.614,0,0,0-1.183.427,2.107,2.107,0,0,0-.546,1.211Zm-3.3,1.043a3.449,3.449,0,0,0,.2.959,2,2,0,0,0,.406.665,1.655,1.655,0,0,0,.6.392,2.259,2.259,0,0,0,.77.126,2.343,2.343,0,0,0,.721-.1,3.217,3.217,0,0,0,.532-.217q.231-.119.4-.217a.689.689,0,0,1,.336-.1.358.358,0,0,1,.322.161l.5.63a2.958,2.958,0,0,1-.644.567,3.826,3.826,0,0,1-.749.364,4.149,4.149,0,0,1-.791.189,5.594,5.594,0,0,1-.777.056,3.887,3.887,0,0,1-1.393-.245,3.182,3.182,0,0,1-1.12-.735,3.493,3.493,0,0,1-.749-1.2,4.688,4.688,0,0,1-.273-1.666,3.948,3.948,0,0,1,.238-1.379,3.309,3.309,0,0,1,.679-1.127,3.237,3.237,0,0,1,1.085-.763,3.6,3.6,0,0,1,1.449-.28,3.515,3.515,0,0,1,1.253.217,2.708,2.708,0,0,1,.987.637,2.852,2.852,0,0,1,.644,1.022,3.729,3.729,0,0,1,.238,1.379,1.146,1.146,0,0,1-.084.532.352.352,0,0,1-.322.133Zm7.9-7.028V91H62.023V80.6Zm3.473,0V91H65.5V80.6Zm6.35,5.985a1.981,1.981,0,0,0-.1-.63,1.457,1.457,0,0,0-.28-.525,1.279,1.279,0,0,0-.483-.35,1.584,1.584,0,0,0-.672-.133,1.613,1.613,0,0,0-1.183.427,2.106,2.106,0,0,0-.546,1.211Zm-3.3,1.043a3.445,3.445,0,0,0,.2.959,2,2,0,0,0,.406.665,1.654,1.654,0,0,0,.6.392,2.259,2.259,0,0,0,.77.126,2.343,2.343,0,0,0,.721-.1,3.224,3.224,0,0,0,.532-.217q.231-.119.4-.217a.688.688,0,0,1,.336-.1.358.358,0,0,1,.322.161l.5.63a2.96,2.96,0,0,1-.644.567,3.829,3.829,0,0,1-.749.364,4.152,4.152,0,0,1-.791.189,5.594,5.594,0,0,1-.777.056A3.886,3.886,0,0,1,70.7,90.86a3.18,3.18,0,0,1-1.12-.735,3.491,3.491,0,0,1-.749-1.2,4.688,4.688,0,0,1-.273-1.666,3.946,3.946,0,0,1,.238-1.379,3.307,3.307,0,0,1,.679-1.127,3.235,3.235,0,0,1,1.085-.763,3.6,3.6,0,0,1,1.449-.28,3.515,3.515,0,0,1,1.253.217,2.709,2.709,0,0,1,.987.637,2.853,2.853,0,0,1,.644,1.022,3.731,3.731,0,0,1,.238,1.379,1.146,1.146,0,0,1-.084.532.352.352,0,0,1-.322.133ZM78.043,84.7a4.545,4.545,0,0,1,.455-.4,2.791,2.791,0,0,1,.511-.315,2.674,2.674,0,0,1,.581-.2,2.769,2.769,0,0,1,.672-.077,2.537,2.537,0,0,1,1.043.2,1.981,1.981,0,0,1,.756.56,2.351,2.351,0,0,1,.462.861,3.553,3.553,0,0,1,.161,1.1V91H80.955V86.429a1.532,1.532,0,0,0-.3-1.015,1.121,1.121,0,0,0-.917-.364,1.8,1.8,0,0,0-.84.2,3.009,3.009,0,0,0-.742.553V91H76.426V83.818h1.057a.425.425,0,0,1,.441.315Zm8.584,6.412a1.906,1.906,0,0,1-1.442-.525,2.059,2.059,0,0,1-.5-1.463V85.113h-.735a.337.337,0,0,1-.238-.091.355.355,0,0,1-.1-.273v-.686l1.155-.189.364-1.96a.384.384,0,0,1,.133-.217.4.4,0,0,1,.252-.077h.9v2.261h1.918v1.232H86.417V89a.785.785,0,0,0,.161.525.578.578,0,0,0,.455.189.856.856,0,0,0,.266-.035,1.493,1.493,0,0,0,.189-.084q.084-.042.147-.077a.226.226,0,0,1,.126-.042.187.187,0,0,1,.126.042.494.494,0,0,1,.1.112l.518.84a2.617,2.617,0,0,1-.868.476A3.232,3.232,0,0,1,86.627,91.112Z" fill="#fff"/>
  <g id="Group_83" data-name="Group 83" clip-path="url(#clip-path)">
    <rect id="Rectangle_95" data-name="Rectangle 95" width="120" height="66" fill="#fff" opacity="0.001"/>
    <path id="Path_233" data-name="Path 233" d="M110,60A50,50,0,0,0,10,60" fill="none" stroke="#428e86" stroke-linecap="round" stroke-width="10"/>
    <path id="Path_234" data-name="Path 234" d="M44.213,44.9a11.221,11.221,0,0,1,1.264-.176q.608-.048,1.184-.048a8.745,8.745,0,0,1,3.248.56,6.789,6.789,0,0,1,2.368,1.536,6.166,6.166,0,0,1,1.44,2.272,7.724,7.724,0,0,1,.5,2.784,8.527,8.527,0,0,1-.672,3.424A7.866,7.866,0,0,1,51.7,57.9a8.39,8.39,0,0,1-2.832,1.744,10.193,10.193,0,0,1-3.584.608,9.649,9.649,0,0,1-2.176-.24,11.13,11.13,0,0,1-1.936-.64,11.407,11.407,0,0,1-1.664-.944,11.587,11.587,0,0,1-1.392-1.152l1.536-2.048a1.588,1.588,0,0,1,.56-.48,1.405,1.405,0,0,1,.688-.176,1.607,1.607,0,0,1,.9.272q.432.256.928.576a7.667,7.667,0,0,0,1.184.56,4.7,4.7,0,0,0,1.664.256,4.079,4.079,0,0,0,1.7-.32,3.081,3.081,0,0,0,1.136-.9,3.578,3.578,0,0,0,.64-1.328,6.222,6.222,0,0,0,.208-1.632,3.32,3.32,0,0,0-.96-2.576,3.837,3.837,0,0,0-2.72-.9,8.319,8.319,0,0,0-3.072.592l-3.072-.832,1.984-11.664H53.349v2.048a2.568,2.568,0,0,1-.16.928,1.919,1.919,0,0,1-.512.736,2.379,2.379,0,0,1-.9.48,4.937,4.937,0,0,1-1.344.16H44.869ZM56.68,57.488a2.743,2.743,0,0,1,.208-1.072,2.89,2.89,0,0,1,.592-.864,2.809,2.809,0,0,1,.9-.576,2.764,2.764,0,0,1,1.12-.224,2.725,2.725,0,0,1,1.1.224,2.81,2.81,0,0,1,.9.576,2.548,2.548,0,0,1,.592.864,2.575,2.575,0,0,1,.224,1.072,2.685,2.685,0,0,1-.224,1.088,2.548,2.548,0,0,1-.592.864,2.81,2.81,0,0,1-.9.576,2.9,2.9,0,0,1-1.1.208,2.947,2.947,0,0,1-1.12-.208,2.809,2.809,0,0,1-.9-.576,2.635,2.635,0,0,1-.8-1.952Zm24.568-9.152a18.955,18.955,0,0,1-.656,5.3,10.781,10.781,0,0,1-1.824,3.712,7.242,7.242,0,0,1-2.752,2.192,8.578,8.578,0,0,1-6.88,0,7.311,7.311,0,0,1-2.72-2.192,10.961,10.961,0,0,1-1.808-3.712,19.408,19.408,0,0,1-.64-5.3,19.408,19.408,0,0,1,.64-5.3,10.961,10.961,0,0,1,1.808-3.712,7.162,7.162,0,0,1,2.72-2.176,8.578,8.578,0,0,1,6.88,0,7.1,7.1,0,0,1,2.752,2.176,10.781,10.781,0,0,1,1.824,3.712A18.955,18.955,0,0,1,81.248,48.336Zm-5.12,0a20.994,20.994,0,0,0-.3-3.952,7.956,7.956,0,0,0-.816-2.432,2.826,2.826,0,0,0-1.136-1.2,2.667,2.667,0,0,0-2.592,0,2.865,2.865,0,0,0-1.12,1.2,8.67,8.67,0,0,0-.784,2.432,22.137,22.137,0,0,0-.288,3.952,22.251,22.251,0,0,0,.288,3.968,8.913,8.913,0,0,0,.784,2.432,2.986,2.986,0,0,0,1.12,1.216,2.784,2.784,0,0,0,2.592,0,2.941,2.941,0,0,0,1.136-1.216,8.166,8.166,0,0,0,.816-2.432A21.1,21.1,0,0,0,76.128,48.336Z" fill="#428e86"/>
    <circle id="Ellipse_40" data-name="Ellipse 40" cx="2.5" cy="2.5" r="2.5" transform="translate(112.5 62) rotate(180)" fill="#fff"/>
    <path id="Path_235" data-name="Path 235" d="M102.2,61.2l-6-3.464v6.928Z" fill="#ed775a"/>
  </g>
</svg>
