<svg id="icon_sp_3" xmlns="http://www.w3.org/2000/svg" xmlns:xlink="http://www.w3.org/1999/xlink" width="120" height="97" viewBox="0 0 120 97">
  <defs>
    <clipPath id="clip-path">
      <rect id="Rectangle_90" data-name="Rectangle 90" width="120" height="66" fill="#fff"/>
    </clipPath>
  </defs>
  <rect id="Rectangle_88" data-name="Rectangle 88" width="59" height="21" rx="10.5" transform="translate(31 76)" fill="#007aff"/>
  <path id="Path_222" data-name="Path 222" d="M52.471,86.925V91.02a5.418,5.418,0,0,1-1.645.833,6.481,6.481,0,0,1-1.862.259,6.253,6.253,0,0,1-2.247-.385A5.069,5.069,0,0,1,45,90.656a4.716,4.716,0,0,1-1.092-1.638,5.494,5.494,0,0,1-.385-2.079,5.718,5.718,0,0,1,.371-2.093,4.584,4.584,0,0,1,2.709-2.7,5.99,5.99,0,0,1,2.184-.378,6.344,6.344,0,0,1,1.148.1,5.508,5.508,0,0,1,.994.273,4.14,4.14,0,0,1,.84.413,4.988,4.988,0,0,1,.693.539l-.539.854a.529.529,0,0,1-.329.252.6.6,0,0,1-.441-.105l-.462-.266a2.937,2.937,0,0,0-.518-.231,4.089,4.089,0,0,0-.637-.161,4.629,4.629,0,0,0-.812-.063,3.52,3.52,0,0,0-1.358.252,2.873,2.873,0,0,0-1.029.721,3.249,3.249,0,0,0-.658,1.127,4.417,4.417,0,0,0-.231,1.47,4.6,4.6,0,0,0,.245,1.554,3.373,3.373,0,0,0,.7,1.155,3.077,3.077,0,0,0,1.092.721,3.931,3.931,0,0,0,1.421.245,3.851,3.851,0,0,0,1-.119,4.922,4.922,0,0,0,.861-.322V88.339H49.5a.4.4,0,0,1-.287-.1.356.356,0,0,1-.1-.252V86.925Zm4.637-2.219a3.888,3.888,0,0,1,1.449.259,3.142,3.142,0,0,1,1.12.735,3.2,3.2,0,0,1,.721,1.162,4.81,4.81,0,0,1,0,3.073,3.274,3.274,0,0,1-.721,1.169,3.1,3.1,0,0,1-1.12.742,3.888,3.888,0,0,1-1.449.259,3.962,3.962,0,0,1-1.463-.259,3.163,3.163,0,0,1-1.127-.742,3.409,3.409,0,0,1-.721-1.169,4.81,4.81,0,0,1,0-3.073,3.334,3.334,0,0,1,.721-1.162,3.211,3.211,0,0,1,1.127-.735A3.962,3.962,0,0,1,57.108,84.706Zm0,6.069a1.512,1.512,0,0,0,1.323-.6,3,3,0,0,0,.434-1.764,3.034,3.034,0,0,0-.434-1.771,1.5,1.5,0,0,0-1.323-.609,1.55,1.55,0,0,0-1.351.616,3.8,3.8,0,0,0,0,3.528A1.564,1.564,0,0,0,57.108,90.775Zm8.039-6.069a3.888,3.888,0,0,1,1.449.259,3.141,3.141,0,0,1,1.12.735,3.2,3.2,0,0,1,.721,1.162,4.81,4.81,0,0,1,0,3.073,3.273,3.273,0,0,1-.721,1.169,3.1,3.1,0,0,1-1.12.742,3.888,3.888,0,0,1-1.449.259,3.963,3.963,0,0,1-1.463-.259,3.165,3.165,0,0,1-1.127-.742,3.41,3.41,0,0,1-.721-1.169,4.81,4.81,0,0,1,0-3.073,3.335,3.335,0,0,1,.721-1.162,3.213,3.213,0,0,1,1.127-.735A3.963,3.963,0,0,1,65.147,84.706Zm0,6.069a1.511,1.511,0,0,0,1.323-.6,3,3,0,0,0,.434-1.764,3.033,3.033,0,0,0-.434-1.771,1.5,1.5,0,0,0-1.323-.609,1.55,1.55,0,0,0-1.351.616,3.8,3.8,0,0,0,0,3.528A1.564,1.564,0,0,0,65.147,90.775Zm9.369-4.123a1.694,1.694,0,0,0-.644-.5A1.864,1.864,0,0,0,73.13,86a1.652,1.652,0,0,0-.707.147,1.412,1.412,0,0,0-.539.448,2.1,2.1,0,0,0-.343.756,4.3,4.3,0,0,0-.119,1.078,5.019,5.019,0,0,0,.1,1.071,2.194,2.194,0,0,0,.294.714,1.141,1.141,0,0,0,.462.4,1.509,1.509,0,0,0,.609.119,1.769,1.769,0,0,0,.917-.224,2.724,2.724,0,0,0,.714-.637ZM76.245,81.6V92H75.188a.407.407,0,0,1-.434-.315l-.147-.693a3.605,3.605,0,0,1-1,.805,2.674,2.674,0,0,1-1.309.308,2.377,2.377,0,0,1-1.078-.245,2.447,2.447,0,0,1-.847-.707A3.54,3.54,0,0,1,69.826,90a5.917,5.917,0,0,1-.189-1.568,4.895,4.895,0,0,1,.217-1.484,3.611,3.611,0,0,1,.623-1.19,2.869,2.869,0,0,1,.973-.784,2.781,2.781,0,0,1,1.274-.287,2.533,2.533,0,0,1,1.029.189,2.636,2.636,0,0,1,.763.511V81.6Z" fill="#fff"/>
  <g id="Group_81" data-name="Group 81" clip-path="url(#clip-path)">
    <rect id="Rectangle_89" data-name="Rectangle 89" width="120" height="66" fill="#fff" opacity="0"/>
    <path id="Path_223" data-name="Path 223" d="M110,60A50,50,0,0,0,10,60" fill="none" stroke="rgba(0,0,0,0.1)" stroke-linecap="round" stroke-width="10"/>
    <path id="Path_224" data-name="Path 224" d="M38.517,43.344a8.861,8.861,0,0,1,.976-3.04,7.479,7.479,0,0,1,1.808-2.16,7.31,7.31,0,0,1,2.48-1.28,10.044,10.044,0,0,1,2.992-.432,8.837,8.837,0,0,1,3.072.5,6.766,6.766,0,0,1,2.272,1.312,5.552,5.552,0,0,1,1.408,1.936,5.645,5.645,0,0,1,.48,2.3,7.675,7.675,0,0,1-.224,1.952,4.46,4.46,0,0,1-.672,1.456,4.052,4.052,0,0,1-1.088,1.04,6.733,6.733,0,0,1-1.472.7,5.2,5.2,0,0,1,3.872,5.28,7.287,7.287,0,0,1-.672,3.232,6.605,6.605,0,0,1-1.808,2.288,7.722,7.722,0,0,1-2.608,1.376,10.707,10.707,0,0,1-3.1.448,11.319,11.319,0,0,1-2.96-.352,7.02,7.02,0,0,1-2.3-1.12,7.664,7.664,0,0,1-1.776-1.952,13.289,13.289,0,0,1-1.312-2.816l2.208-.9a2.756,2.756,0,0,1,1.6-.176,1.5,1.5,0,0,1,1.056.736,5.967,5.967,0,0,0,1.52,1.936,3.156,3.156,0,0,0,1.9.592,3.5,3.5,0,0,0,1.44-.272,3.2,3.2,0,0,0,1.024-.72,3.011,3.011,0,0,0,.624-1.008,3.241,3.241,0,0,0,.208-1.136,7.281,7.281,0,0,0-.112-1.344,1.73,1.73,0,0,0-.576-1.04,3.249,3.249,0,0,0-1.456-.656,11.663,11.663,0,0,0-2.688-.24V46.368a10.017,10.017,0,0,0,2.352-.224,3.6,3.6,0,0,0,1.376-.608,1.884,1.884,0,0,0,.656-.96,4.477,4.477,0,0,0,.16-1.232,3.025,3.025,0,0,0-.672-2.112,2.536,2.536,0,0,0-2.016-.752,2.977,2.977,0,0,0-2.912,2.032,2.085,2.085,0,0,1-.88,1.168,2.518,2.518,0,0,1-1.552.128ZM56.68,57.488a2.743,2.743,0,0,1,.208-1.072,2.89,2.89,0,0,1,.592-.864,2.809,2.809,0,0,1,.9-.576,2.764,2.764,0,0,1,1.12-.224,2.725,2.725,0,0,1,1.1.224,2.81,2.81,0,0,1,.9.576,2.548,2.548,0,0,1,.592.864,2.575,2.575,0,0,1,.224,1.072,2.685,2.685,0,0,1-.224,1.088,2.548,2.548,0,0,1-.592.864,2.81,2.81,0,0,1-.9.576,2.9,2.9,0,0,1-1.1.208,2.947,2.947,0,0,1-1.12-.208,2.809,2.809,0,0,1-.9-.576,2.635,2.635,0,0,1-.8-1.952Zm24.568-9.152a18.955,18.955,0,0,1-.656,5.3,10.781,10.781,0,0,1-1.824,3.712,7.242,7.242,0,0,1-2.752,2.192,8.578,8.578,0,0,1-6.88,0,7.311,7.311,0,0,1-2.72-2.192,10.961,10.961,0,0,1-1.808-3.712,19.408,19.408,0,0,1-.64-5.3,19.408,19.408,0,0,1,.64-5.3,10.961,10.961,0,0,1,1.808-3.712,7.162,7.162,0,0,1,2.72-2.176,8.578,8.578,0,0,1,6.88,0,7.1,7.1,0,0,1,2.752,2.176,10.781,10.781,0,0,1,1.824,3.712A18.955,18.955,0,0,1,81.248,48.336Zm-5.12,0a20.994,20.994,0,0,0-.3-3.952,7.956,7.956,0,0,0-.816-2.432,2.826,2.826,0,0,0-1.136-1.2,2.667,2.667,0,0,0-2.592,0,2.865,2.865,0,0,0-1.12,1.2,8.67,8.67,0,0,0-.784,2.432,22.137,22.137,0,0,0-.288,3.952,22.251,22.251,0,0,0,.288,3.968,8.913,8.913,0,0,0,.784,2.432,2.986,2.986,0,0,0,1.12,1.216,2.784,2.784,0,0,0,2.592,0,2.941,2.941,0,0,0,1.136-1.216,8.166,8.166,0,0,0,.816-2.432A21.1,21.1,0,0,0,76.128,48.336Z" fill="#007aff"/>
    <path id="Path_225" data-name="Path 225" d="M10,60A50,50,0,0,1,75.451,12.447" fill="none" stroke="#007aff" stroke-linecap="round" stroke-width="10"/>
    <circle id="Ellipse_38" data-name="Ellipse 38" cx="2.5" cy="2.5" r="2.5" transform="translate(72 10)" fill="#fff"/>
    <path id="Path_226" data-name="Path 226" d="M76.464,20v6.928l-6-3.464Z" fill="#ed775a"/>
  </g>
</svg>
