<svg id="icon_sp_1" xmlns="http://www.w3.org/2000/svg" xmlns:xlink="http://www.w3.org/1999/xlink" width="120" height="97" viewBox="0 0 120 97">
  <defs>
    <clipPath id="clip-path">
      <rect id="Rectangle_84" data-name="Rectangle 84" width="120" height="66" fill="#fff" opacity="0"/>
    </clipPath>
  </defs>
  <rect id="Rectangle_82" data-name="Rectangle 82" width="54" height="21" rx="10.5" transform="translate(34 76)" fill="#f7b500"/>
  <path id="Path_212" data-name="Path 212" d="M50.417,86.967a2.91,2.91,0,0,0,.9-.126,1.74,1.74,0,0,0,.637-.371,1.517,1.517,0,0,0,.385-.588,2.28,2.28,0,0,0,.126-.777,2.041,2.041,0,0,0-.126-.735,1.453,1.453,0,0,0-.378-.56,1.645,1.645,0,0,0-.637-.35,2.936,2.936,0,0,0-.91-.126H49.01v3.633Zm0-5.089a5.776,5.776,0,0,1,1.757.238,3.381,3.381,0,0,1,1.225.665,2.6,2.6,0,0,1,.714,1.022,3.474,3.474,0,0,1,.238,1.3,3.625,3.625,0,0,1-.245,1.351,2.8,2.8,0,0,1-.735,1.05,3.413,3.413,0,0,1-1.232.686,5.455,5.455,0,0,1-1.722.245H49.01V92H47.127V81.878Zm7.955,2.828a3.888,3.888,0,0,1,1.449.259,3.141,3.141,0,0,1,1.12.735,3.2,3.2,0,0,1,.721,1.162,4.81,4.81,0,0,1,0,3.073,3.273,3.273,0,0,1-.721,1.169,3.1,3.1,0,0,1-1.12.742,3.888,3.888,0,0,1-1.449.259,3.963,3.963,0,0,1-1.463-.259,3.165,3.165,0,0,1-1.127-.742,3.41,3.41,0,0,1-.721-1.169,4.81,4.81,0,0,1,0-3.073,3.335,3.335,0,0,1,.721-1.162,3.213,3.213,0,0,1,1.127-.735A3.963,3.963,0,0,1,58.372,84.706Zm0,6.069a1.511,1.511,0,0,0,1.323-.6,3,3,0,0,0,.434-1.764,3.033,3.033,0,0,0-.434-1.771,1.5,1.5,0,0,0-1.323-.609,1.55,1.55,0,0,0-1.351.616,3.8,3.8,0,0,0,0,3.528A1.564,1.564,0,0,0,58.372,90.775Zm8.039-6.069a3.888,3.888,0,0,1,1.449.259,3.141,3.141,0,0,1,1.12.735,3.2,3.2,0,0,1,.721,1.162,4.81,4.81,0,0,1,0,3.073A3.273,3.273,0,0,1,68.98,91.1a3.1,3.1,0,0,1-1.12.742,3.888,3.888,0,0,1-1.449.259,3.963,3.963,0,0,1-1.463-.259,3.164,3.164,0,0,1-1.127-.742,3.41,3.41,0,0,1-.721-1.169,4.81,4.81,0,0,1,0-3.073,3.335,3.335,0,0,1,.721-1.162,3.212,3.212,0,0,1,1.127-.735A3.963,3.963,0,0,1,66.411,84.706Zm0,6.069a1.512,1.512,0,0,0,1.323-.6,3,3,0,0,0,.434-1.764,3.034,3.034,0,0,0-.434-1.771,1.5,1.5,0,0,0-1.323-.609,1.55,1.55,0,0,0-1.351.616,3.8,3.8,0,0,0,0,3.528A1.564,1.564,0,0,0,66.411,90.775ZM72.9,86.064a3.058,3.058,0,0,1,.8-1.008,1.691,1.691,0,0,1,1.092-.371,1.336,1.336,0,0,1,.8.217L75.479,86.2a.344.344,0,0,1-.1.182.279.279,0,0,1-.175.049,2.11,2.11,0,0,1-.315-.035,2.35,2.35,0,0,0-.4-.035,1.448,1.448,0,0,0-.511.084,1.293,1.293,0,0,0-.406.245,1.7,1.7,0,0,0-.315.378,4,4,0,0,0-.252.511V92H71.272V84.818h1.015a.544.544,0,0,1,.371.1.538.538,0,0,1,.14.336Z" fill="#fff"/>
  <g id="Group_79" data-name="Group 79" clip-path="url(#clip-path)">
    <rect id="Rectangle_83" data-name="Rectangle 83" width="120" height="66" fill="#fff" opacity="0"/>
    <path id="Path_213" data-name="Path 213" d="M110,60A50,50,0,1,0,10,60" fill="none" stroke="rgba(0,0,0,0.1)" stroke-linecap="round" stroke-width="10"/>
    <path id="Path_214" data-name="Path 214" d="M53.926,56.416V60H40.646V56.416h4.48V44.656q0-.448.016-.9.016-.464.048-.928L42.534,45.04a1.64,1.64,0,0,1-.7.336,2.144,2.144,0,0,1-.64,0,1.749,1.749,0,0,1-.544-.208,1.311,1.311,0,0,1-.352-.32l-1.568-2.08,7.264-6.1h4.1V56.416Zm2.755,1.072a2.743,2.743,0,0,1,.208-1.072,2.89,2.89,0,0,1,.592-.864,2.809,2.809,0,0,1,.9-.576,2.764,2.764,0,0,1,1.12-.224,2.725,2.725,0,0,1,1.1.224,2.81,2.81,0,0,1,.9.576,2.548,2.548,0,0,1,.592.864,2.575,2.575,0,0,1,.224,1.072,2.685,2.685,0,0,1-.224,1.088,2.548,2.548,0,0,1-.592.864,2.81,2.81,0,0,1-.9.576,2.9,2.9,0,0,1-1.1.208,2.947,2.947,0,0,1-1.12-.208,2.809,2.809,0,0,1-.9-.576,2.635,2.635,0,0,1-.8-1.952Zm24.568-9.152a18.959,18.959,0,0,1-.656,5.3,10.781,10.781,0,0,1-1.824,3.712,7.242,7.242,0,0,1-2.752,2.192,8.578,8.578,0,0,1-6.88,0,7.311,7.311,0,0,1-2.72-2.192,10.959,10.959,0,0,1-1.808-3.712,19.4,19.4,0,0,1-.64-5.3,19.4,19.4,0,0,1,.64-5.3,10.959,10.959,0,0,1,1.808-3.712,7.162,7.162,0,0,1,2.72-2.176,8.578,8.578,0,0,1,6.88,0,7.1,7.1,0,0,1,2.752,2.176,10.781,10.781,0,0,1,1.824,3.712A18.959,18.959,0,0,1,81.249,48.336Zm-5.12,0a21,21,0,0,0-.3-3.952,7.961,7.961,0,0,0-.816-2.432,2.826,2.826,0,0,0-1.136-1.2,2.667,2.667,0,0,0-2.592,0,2.865,2.865,0,0,0-1.12,1.2,8.67,8.67,0,0,0-.784,2.432,22.137,22.137,0,0,0-.288,3.952,22.251,22.251,0,0,0,.288,3.968,8.913,8.913,0,0,0,.784,2.432,2.986,2.986,0,0,0,1.12,1.216,2.784,2.784,0,0,0,2.592,0,2.942,2.942,0,0,0,1.136-1.216,8.171,8.171,0,0,0,.816-2.432A21.1,21.1,0,0,0,76.129,48.336Z" fill="#f7b500"/>
    <path id="Path_215" data-name="Path 215" d="M10,60a50,50,0,0,1,9.549-29.389" fill="none" stroke="#f7b500" stroke-linecap="round" stroke-width="10"/>
    <circle id="Ellipse_36" data-name="Ellipse 36" cx="2.5" cy="2.5" r="2.5" transform="translate(17 28)" fill="#fff"/>
    <path id="Path_216" data-name="Path 216" d="M26.829,32.828l6.692,1.793-4.9,4.9Z" fill="#ed775a"/>
  </g>
</svg>
