<svg xmlns="http://www.w3.org/2000/svg" xmlns:xlink="http://www.w3.org/1999/xlink" width="640" height="480" viewBox="0 0 640 480">
  <defs>
    <clipPath id="clip-path">
      <rect id="Rectangle_97" data-name="Rectangle 97" width="640" height="480" rx="8" fill="#fff"/>
    </clipPath>
  </defs>
  <g id="live_rect_landscape" clip-path="url(#clip-path)">
    <path id="Path_236" data-name="Path 236" d="M640,0H0V480H640ZM319.5,21A125.5,125.5,0,0,0,194,146.5v76a125.5,125.5,0,0,0,251,0v-76A125.5,125.5,0,0,0,319.5,21Z" fill="rgba(10,10,10,0.6)" fill-rule="evenodd"/>
    <path id="Path_237" data-name="Path 237" d="M317,20l-7.148.787a127,127,0,0,0-112.68,115.938L193,188" fill="none" stroke="#25b18e" stroke-linecap="round" stroke-linejoin="round" stroke-width="8"/>
    <path id="Path_238" data-name="Path 238" d="M321,349l3.868-.291A127,127,0,0,0,442.1,229.627L445,181" fill="none" stroke="#25b18e" stroke-linecap="round" stroke-linejoin="round" stroke-width="8"/>
  </g>
</svg>
